<svg xmlns="http://www.w3.org/2000/svg" viewBox="0 0 25 25" width="15" height="15">
    <path d="M23.5 2h-22a.5.5 0 0 0-.5.5v15a.5.5 0 0 0 .5.5h8.57a5.73 5.73 0 0 1-.07 2.44A5.11 5.11 0 0 1 9.23 22H6.5a.5.5 0 0 0 0 1h12a.5.5 0 0 0 0-1h-2.73a5.11 5.11 0 0 1-.77-1.56 5.73 5.73 0 0 1-.07-2.44h8.57a.5.5 0 0 0 .5-.5v-15a.5.5 0 0 0-.5-.5zM14 20.71a6 6 0 0 0 .56 1.29h-4.12a6 6 0 0 0 .56-1.29 6.25 6.25 0 0 0 .1-2.71h2.84a6.25 6.25 0 0 0 .06 2.71zM23 17H2v-1h18.5a.5.5 0 0 0 0-1H2V3h21z"
          fill="currentColor" fill-rule="evenodd" clip-rule="evenodd"></path>
</svg>